<?xml version="1.0" standalone="no"?><!DOCTYPE svg PUBLIC "-//W3C//DTD SVG 1.1//EN" "http://www.w3.org/Graphics/SVG/1.1/DTD/svg11.dtd"><svg t="1553475872161" class="icon" style="" viewBox="0 0 1024 1024" version="1.1" xmlns="http://www.w3.org/2000/svg" p-id="2635" xmlns:xlink="http://www.w3.org/1999/xlink" width="200" height="200"><defs><style type="text/css"></style></defs><path d="M871.424 442.752l108.736 36.416 0 65.664-111.488 36.032-3.008-1.472c-9.216 49.216-29.248 94.464-56.256 134.336l11.776 3.52 50.624 105.344-49.344 49.344-106.944-52.928-2.752-9.152c-39.232 26.368-83.392 46.144-131.584 55.488l3.328 6.144-38.208 108.672L477.568 980.16l-37.76-111.424 1.984-3.584c-48.192-9.472-92.352-29.248-131.456-55.808l-3.584 11.904-105.344 50.688-49.344-49.344 52.864-106.944 9.344-2.752C187.84 673.6 168.128 629.376 158.72 581.248L152.512 584.512 43.776 546.496 43.776 477.632l111.424-37.696 3.712 1.984c9.664-49.344 30.016-94.656 57.6-134.464L203.968 303.296 152 199.232l47.104-47.104 105.792 54.08 3.008 9.856c39.168-27.072 83.456-47.104 131.712-56.96L436.032 152.576l39.872-108.736 72 0 39.488 111.424L585.152 159.36c48.256 9.92 92.288 30.208 131.392 57.344l4.16-12.736 104.064-51.84 47.04 47.104-54.016 105.792-9.856 3.008c28.096 40.832 48.576 87.168 57.856 137.6L871.424 442.752 871.424 442.752zM511.936 223.936C352.832 223.936 223.872 352.896 223.872 512c0 159.104 129.024 288.064 288.064 288.064 159.168 0 288.128-129.024 288.128-288.064C800.064 352.896 671.04 223.936 511.936 223.936L511.936 223.936zM511.936 692.096c-99.392 0-180.032-80.64-180.032-180.096s80.576-180.032 180.032-180.032c99.52 0 180.16 80.576 180.16 180.032S611.456 692.096 511.936 692.096L511.936 692.096zM511.936 403.904C452.224 403.904 403.968 452.352 403.968 512c0 59.648 48.32 108.032 107.968 108.032 59.776 0 108.096-48.384 108.096-108.032C620.032 452.352 571.712 403.904 511.936 403.904L511.936 403.904z" p-id="2636" fill="#d0dddc"></path></svg>