<?xml version="1.0" standalone="no"?><!DOCTYPE svg PUBLIC "-//W3C//DTD SVG 1.1//EN" "http://www.w3.org/Graphics/SVG/1.1/DTD/svg11.dtd"><svg t="1553673215777" class="icon" style="" viewBox="0 0 1024 1024" version="1.1" xmlns="http://www.w3.org/2000/svg" p-id="2006" xmlns:xlink="http://www.w3.org/1999/xlink" width="200" height="200"><defs><style type="text/css"></style></defs><path d="M509.83 575.88c-20.41 0-40.78-4.31-56.9-12.9L163.12 408.46c-21.48-11.45-33.71-29.6-33.56-49.79 0.15-20.35 12.86-38.53 34.87-49.86l295.9-152.3c32.48-16.72 81-16.5 112.94 0.51l289.8 154.52c21.48 11.45 33.71 29.6 33.57 49.79-0.15 20.35-12.86 38.53-34.88 49.86l-295.9 152.3c-16.06 8.27-36.06 12.39-56.03 12.39z m-305.41-216.8l278.15 148.31c13.79 7.35 40.26 7.39 54.46 0.08l284.74-146.55-278.14-148.31c-13.8-7.35-40.26-7.39-54.47-0.08zM205.034 531.216l337.455 181.397-30.302 56.372-337.455-181.397z" fill="#d0dddc" p-id="2007"></path><path d="M849.559 587.61L512.103 769.008l-30.302-56.372 337.455-181.397zM205.032 658.36l337.455 181.398-30.302 56.372-337.456-181.398z" fill="#d0dddc" p-id="2008"></path><path d="M849.556 714.766L512.101 896.163 481.8 839.79l337.455-181.397z" fill="#d0dddc" p-id="2009"></path></svg>